<svg width="26" height="29" viewBox="0 0 26 29" fill="none" xmlns="http://www.w3.org/2000/svg">
<path fill-rule="evenodd" clip-rule="evenodd" d="M24.4735 20.0056L19.5571 11.5106L19.5388 11.4795L24.4735 8.62093V20.0056ZM16.3559 21.1726C18.6671 19.9228 20.2336 17.5059 20.2336 14.7302C20.2336 14.6975 20.2336 14.6652 20.2324 14.6321L24.076 21.1726H16.3559ZM13.2218 27.8028V22.1109H23.2594L13.2218 27.8028ZM12.7223 21.1038C12.5643 21.1038 12.4079 21.0985 12.2537 21.087C8.89159 20.8513 6.23811 18.0968 6.23811 14.7345C6.23811 13.7609 6.46059 12.8388 6.85855 12.0135C7.00867 11.7014 7.18373 11.4028 7.38251 11.1209C8.55185 9.45521 10.5075 8.36397 12.7223 8.36397C14.9333 8.36397 16.8853 9.45112 18.0546 11.1111C18.2596 11.4003 18.4397 11.7071 18.5923 12.0278C18.9865 12.8486 19.2057 13.7662 19.2057 14.7345C19.2057 18.0866 16.5697 20.8341 13.2222 21.0854C13.0575 21.0976 12.8907 21.1038 12.7223 21.1038ZM12.2536 27.8028L2.21645 22.1109H12.2536V27.8028ZM5.27334 14.5305C5.27043 14.5971 5.26959 14.6633 5.26959 14.7299C5.26959 17.5056 6.83606 19.9226 9.14814 21.1723H1.36984L5.27334 14.5305ZM1.00316 8.62093L5.91507 11.4669L5.88928 11.5106L1.00316 19.9524V8.62093ZM11.3935 2.14365L6.43214 10.5859L1.46284 7.78572L11.3935 2.14365ZM12.7058 1.88252C12.7137 1.86945 12.7324 1.86945 12.7399 1.88252L16.5768 8.41196C15.4574 7.75624 14.15 7.37955 12.7519 7.37955C11.3169 7.37955 9.97621 7.77666 8.83722 8.46466L12.7058 1.88252ZM23.9428 7.78651L19.0067 10.5745L14.0819 2.1947L23.9428 7.78651ZM25.0486 7.24649L13.1181 0.479282C13.0973 0.467843 13.0765 0.456403 13.0545 0.447007C12.8445 0.350998 12.6016 0.350998 12.3904 0.447007C12.3692 0.456403 12.3475 0.467843 12.3263 0.479282L0.39588 7.24649C0.15095 7.3854 0 7.64197 0 7.91978V21.455C0 21.5196 0.00831681 21.5825 0.0237029 21.6438C0.0723562 21.8354 0.194197 22.0033 0.366355 22.1107C0.376336 22.1169 0.3859 22.1234 0.39588 22.1283L12.3263 28.8955C12.5717 29.0348 12.8732 29.0348 13.1181 28.8955L25.0486 22.1283C25.0585 22.1234 25.0685 22.1169 25.0781 22.1107C25.2511 22.0033 25.3725 21.8346 25.4207 21.6429C25.4361 21.5817 25.4444 21.5187 25.4444 21.455V7.91978C25.4444 7.64197 25.2939 7.3854 25.0486 7.24649Z" fill="#FCFCFF"/>
</svg>
